<svg width="50" height="50" viewBox="0 0 50 50" fill="none" xmlns="http://www.w3.org/2000/svg">
<path fill-rule="evenodd" clip-rule="evenodd" d="M46.6702 16.0332L50 0L34.4612 7.60339L46.6702 16.0332ZM7.50778 18.1206L0 5.39402L17.5783 8.23401L7.50778 18.1206Z" fill="#FA6F20"/>
<circle cx="27.3531" cy="26.2044" r="21.8685" fill="url(#paint0_linear)"/>
<path d="M16.6603 24.0182C17.7827 21.8716 20.8549 21.8716 21.9773 24.0182L24.0464 27.9752C24.0464 27.9752 21.1792 25.9472 19.3188 25.9472C17.4584 25.9472 14.5912 27.9752 14.5912 27.9752L16.6603 24.0182Z" fill="white"/>
<path d="M32.1216 24.0444C33.244 21.8979 36.3162 21.8979 37.4386 24.0444L39.5077 28.0015C39.5077 28.0015 36.6458 25.9735 34.7801 25.9735C32.9144 25.9735 30.0525 28.0015 30.0525 28.0015L32.1216 24.0444Z" fill="white"/>
<path d="M27.63 33.6902C27.4429 34.048 26.9309 34.048 26.7438 33.6902L25.5753 31.4554C25.4012 31.1225 25.6427 30.7237 26.0184 30.7237L28.3555 30.7237C28.7311 30.7237 28.9726 31.1225 28.7985 31.4554L27.63 33.6902Z" fill="black"/>
<defs>
<linearGradient id="paint0_linear" x1="27.3531" y1="4.33589" x2="27.3531" y2="48.0729" gradientUnits="userSpaceOnUse">
<stop offset="0.203125" stop-color="#FA6F20"/>
<stop offset="1" stop-color="#FA9620"/>
</linearGradient>
</defs>
</svg>
